custom-analysis
version=1
nRows=11
nColumns=42
inDegrees=no

This file contains tibia displacement and acting force.

Units are S.I. units (seconds, meters, Newtons, ...)
Angles are in degrees.

endheader
time	APT	SIT	knee_angle	aACL_R_force	pACL_R_force	aPCL_R_force	pPCL_R_force	aMCL_R_force	mMCL_R_force	pMCL_R_force	aLCL_R_force	mLCL_R_force	pLCL_R_force	aACL_R_length	pACL_R_length	aPCL_R_length	pPCL_R_length	aMCL_R_length	mMCL_R_length	pMCL_R_length	aLCL_R_length	mLCL_R_length	pLCL_R_length	aACL_R_strain	pACL_R_strain	aPCL_R_strain	pPCL_R_strain	aMCL_R_strain	mMCL_R_strain	pMCL_R_strain	aLCL_R_strain	mLCL_R_strain	pLCL_R_strain	femur_lat_meniscii_force_r	femur_lat_meniscii_torque_r	femur_med_meniscii_force_r	femur_med_meniscii_torque_r	femur_lat_tibia_force_r	femur_lat_tibia_torque_r	femur_med_tibia_force_r	femur_med_tibia_torque_r
      0.00000000	      0.00000000	      0.00000000	     30.00011112	     22.88079014	      7.60641182	    174.08315868	    146.18621272	      0.00000000	      0.00000000	      0.00000000	      0.00000000	      0.00000000	      0.00000000	      0.03271805	      0.02607625	      0.03270142	      0.03136611	      0.05762997	      0.05959056	      0.05857054	      0.05514707	      0.05179641	      0.04809519	      0.05523379	      0.02829620	      0.05165148	      0.04248583	     -0.00684221	     -0.00339395	     -0.03552665	     -0.01482986	     -0.08029662	     -0.08114818	    981.11242665	    283.16861769	      6.40213124	      0.37690513	      0.00000000	      0.00000000	      4.29141420	      0.11314594
      0.00031525	     -0.00000085	     -0.00000170	     30.00011112	     23.94522851	      8.72198681	    178.30762179	    156.51079857	      0.00000000	      0.00000000	      0.00000000	      0.00000000	      0.00000000	      0.00000000	      0.03271862	      0.02607683	      0.03270348	      0.03136816	      0.05763165	      0.05959227	      0.05857223	      0.05514917	      0.05179850	      0.04809730	      0.05525224	      0.02831891	      0.05171774	      0.04255402	     -0.00681315	     -0.00336549	     -0.03549873	     -0.01479233	     -0.08025939	     -0.08110774	    771.05870797	    215.86599876	      5.69294457	      0.34629630	      0.00000000	      0.00000000	      3.69351663	      0.09734498
      0.00073346	     -0.00000331	     -0.00000564	     30.00011112	     23.70690135	      8.54651818	    180.13686257	    159.56766787	      0.00000000	      0.00000000	      0.00000000	      0.00000000	      0.00000000	      0.00000000	      0.03271965	      0.02607792	      0.03270861	      0.03137324	      0.05763544	      0.05959610	      0.05857605	      0.05515441	      0.05180373	      0.04810259	      0.05528542	      0.02836175	      0.05188281	      0.04272302	     -0.00674783	     -0.00330138	     -0.03543589	     -0.01469860	     -0.08016651	     -0.08100677	    715.64092947	    197.44199840	      5.61577678	      0.33858407	      0.00000000	      0.00000000	      3.21857917	      0.08497418
      0.00129165	     -0.00000767	     -0.00001060	     30.00011112	     23.06864202	      8.01070867	    181.37318236	    160.33617988	      0.00000000	      0.00000000	      0.00000000	      0.00000000	      0.00000000	      0.00000000	      0.03272028	      0.02607876	      0.03271593	      0.03138041	      0.05763983	      0.05960056	      0.05858048	      0.05516199	      0.05181127	      0.04811021	      0.05530571	      0.02839509	      0.05211806	      0.04296141	     -0.00667215	     -0.00322673	     -0.03536293	     -0.01456332	     -0.08003268	     -0.08086110	    707.85031081	    194.22358811	      5.80296018	      0.34880735	      0.00000000	      0.00000000	      2.75971818	      0.07304585
      0.00217771	     -0.00001657	     -0.00001677	     30.00011112	     21.72110947	      6.81053096	    183.29898853	    161.48565831	      0.00000000	      0.00000000	      0.00000000	      0.00000000	      0.00000000	      0.00000000	      0.03271921	      0.02607837	      0.03272740	      0.03139148	      0.05764419	      0.05960506	      0.05858490	      0.05517414	      0.05182334	      0.04812244	      0.05527122	      0.02837951	      0.05248694	      0.04332906	     -0.00659705	     -0.00315147	     -0.03529009	     -0.01434619	     -0.07981843	     -0.08062745	    706.06935562	    195.10960284	      6.33354323	      0.41294259	      0.00000000	      0.00000000	      2.25712008	      0.05990112
      0.00325936	     -0.00003027	     -0.00002110	     30.00011112	     20.70488849	      6.03857646	    185.91594276	    163.83042221	      0.00000000	      0.00000000	      0.00000000	      0.00000000	      0.00000000	      0.00000000	      0.03271465	      0.02607518	      0.03274051	      0.03140379	      0.05764481	      0.05960589	      0.05858560	      0.05518862	      0.05183766	      0.04813699	      0.05512419	      0.02825392	      0.05290850	      0.04373826	     -0.00658641	     -0.00313768	     -0.03527868	     -0.01408752	     -0.07956411	     -0.08034947	    682.68628142	    192.29292584	      7.21100275	      0.47832198	      0.00000000	      0.00000000	      2.00403342	      0.05317881
      0.00434102	     -0.00004821	     -0.00002369	     30.00011112	     18.56189445	      4.12145260	    187.33843698	    162.55879202	      0.00000000	      0.00000000	      0.00000000	      0.00000000	      0.00000000	      0.00000000	      0.03270647	      0.02606888	      0.03275510	      0.03141729	      0.05764236	      0.05960370	      0.05858325	      0.05520482	      0.05185365	      0.04815328	      0.05486030	      0.02800547	      0.05337794	      0.04418703	     -0.00662870	     -0.00317422	     -0.03531732	     -0.01379804	     -0.07928014	     -0.08003825	    724.33033639	    203.49141866	      9.04151393	      0.59170840	      0.00000000	      0.00000000	      1.95504206	      0.05173619
      0.00502600	     -0.00006050	     -0.00002300	     30.00011112	     18.70633621	      4.46966120	    189.55071340	    165.63356876	      0.00000000	      0.00000000	      0.00000000	      0.00000000	      0.00000000	      0.00000000	      0.03269963	      0.02606353	      0.03276289	      0.03142424	      0.05763766	      0.05959918	      0.05857861	      0.05521398	      0.05186266	      0.04816247	      0.05463962	      0.02779423	      0.05362842	      0.04441787	     -0.00670964	     -0.00324979	     -0.03539377	     -0.01363441	     -0.07912028	     -0.07986267	    662.49942870	    183.61260573	      9.96316768	      0.64243261	      0.00000000	      0.00000000	      2.05201120	      0.05410744
      0.00571098	     -0.00007337	     -0.00002252	     30.00011112	     18.59404553	      4.54330719	    190.49357500	    165.25788166	      0.00000000	      0.00000000	      0.00000000	      0.00000000	      0.00000000	      0.00000000	      0.03269320	      0.02605878	      0.03277110	      0.03143150	      0.05763249	      0.05959420	      0.05857347	      0.05522420	      0.05187271	      0.04817270	      0.05443212	      0.02760709	      0.05389228	      0.04465921	     -0.00679872	     -0.00333322	     -0.03547840	     -0.01345193	     -0.07894183	     -0.07966724	    665.86709365	    184.51966103	     11.22648234	      0.72085685	      0.00000000	      0.00000000	      2.26249360	      0.05945792
      0.00681502	     -0.00009364	     -0.00002069	     30.00011112	     19.06585822	      5.27645017	    192.40222991	    166.14887859	      0.00000000	      0.00000000	      0.00000000	      0.00000000	      0.00000000	      0.00000000	      0.03268373	      0.02605237	      0.03278282	      0.03144151	      0.05762168	      0.05958365	      0.05856265	      0.05524081	      0.05188906	      0.04818930	      0.05412674	      0.02735419	      0.05426918	      0.04499203	     -0.00698495	     -0.00350952	     -0.03565656	     -0.01315511	     -0.07865141	     -0.07935017	    635.15084381	    175.57985059	     13.21954551	      0.84194734	      0.00000000	      0.00000000	      2.81133446	      0.07364031
      0.00777150	     -0.00011027	     -0.00001937	     30.00011112	     19.26123971	      5.63008801	    193.00554221	    164.35567719	      0.00000000	      0.00000000	      0.00000000	      0.00000000	      0.00000000	      0.00000000	      0.03267735	      0.02604883	      0.03279241	      0.03144948	      0.05761131	      0.05957347	      0.05855221	      0.05525657	      0.05190462	      0.04820502	      0.05392115	      0.02721481	      0.05457784	      0.04525690	     -0.00716379	     -0.00367985	     -0.03582842	     -0.01287369	     -0.07837515	     -0.07904985	    653.84421437	    182.36759368	     15.20704851	      1.03802900	      0.00000000	      0.00000000	      3.48685786	      0.09111218
